<?xml version="1.0" encoding="utf-8"?>
<!-- Generator: Adobe Illustrator 23.0.1, SVG Export Plug-In . SVG Version: 6.00 Build 0)  -->
<svg version="1.1" id="Layer_1" xmlns="http://www.w3.org/2000/svg" xmlns:xlink="http://www.w3.org/1999/xlink" x="0px" y="0px"
	 viewBox="0 0 57 57" style="enable-background:new 0 0 57 57;" xml:space="preserve">
<style type="text/css">
	.st0{fill-rule:evenodd;clip-rule:evenodd;fill:#FFFFFF;stroke:#979797;stroke-width:2.8;}
	.st1{fill-rule:evenodd;clip-rule:evenodd;fill:#9B9B9B;}
</style>
<title>897B43E0-4314-481F-9BFF-E4E24B3383AB</title>
<desc>Created with sketchtool.</desc>
<g id="FAQ">
	<g id="FAQ-Answer-Mobile" transform="translate(-75.000000, -1152.000000)">
		<g id="email-icon" transform="translate(77.000000, 1154.000000)">
			<circle id="Oval-2" class="st0" cx="26.5" cy="26.5" r="26.5"/>
			<path class="st1" d="M37.7,23.2v9.9c0,1.1-0.9,2-2,2H17.3c-1.1,0-2-0.9-2-2v-9.9c0.4,0.4,0.8,0.8,1.3,1.1
				c2.1,1.4,4.2,2.8,6.2,4.3c1,0.8,2.3,1.7,3.7,1.7h0c1.4,0,2.7-0.9,3.7-1.7c2-1.5,4.1-2.9,6.2-4.3C36.9,24,37.3,23.6,37.7,23.2z
				 M37.7,19.5c0,1.4-1,2.7-2.1,3.4c-1.9,1.3-3.9,2.7-5.8,4c-0.8,0.6-2.2,1.7-3.2,1.7h0c-1,0-2.4-1.1-3.2-1.7
				c-1.9-1.4-3.9-2.7-5.8-4c-0.9-0.6-2.1-2-2.1-3.1c0-1.2,0.7-2.3,2-2.3h18.3C36.7,17.5,37.7,18.4,37.7,19.5z"/>
		</g>
	</g>
</g>
</svg>
