<?xml version="1.0" encoding="utf-8"?>
<!-- Generator: Adobe Illustrator 23.0.1, SVG Export Plug-In . SVG Version: 6.00 Build 0)  -->
<svg version="1.1" id="Layer_1" xmlns="http://www.w3.org/2000/svg" xmlns:xlink="http://www.w3.org/1999/xlink" x="0px" y="0px"
	 viewBox="0 0 36 36" style="enable-background:new 0 0 36 36;" xml:space="preserve">
<style type="text/css">
	.st0{fill:none;stroke:#EC008C;stroke-width:1.5;}
	.st1{fill-rule:evenodd;clip-rule:evenodd;fill:#EC008C;}
</style>
<title>French Icon</title>
<desc>Created with Sketch.</desc>
<g id="Home">
	<g id="tablet-landscape_nav-open" transform="translate(-494.000000, -675.000000)">
		<g id="French-Icon" transform="translate(494.000000, 675.000000)">
			<circle id="Oval" class="st0" cx="18" cy="18" r="17.2"/>
			<path id="FR" class="st1" d="M11,22.7V13h6.7v1.4h-5.3v2.8h4.6v1.4h-4.6v4.2H11z M19.5,22.7V13h3c1.8,0,3.3,1,3.3,2.8
				c0,1.3-0.8,2.2-1.9,2.5l2.7,4.4h-1.7l-2.4-4.2c-0.2,0-0.4,0-0.6,0H21v4.2H19.5z M21,17.3h1.6c1.1,0,1.7-0.6,1.7-1.4
				c0-0.9-0.7-1.5-1.8-1.5H21V17.3z"/>
		</g>
	</g>
</g>
</svg>
