<?xml version="1.0" encoding="utf-8"?>
<!-- Generator: Adobe Illustrator 23.0.1, SVG Export Plug-In . SVG Version: 6.00 Build 0)  -->
<svg version="1.1" id="Layer_1" xmlns="http://www.w3.org/2000/svg" xmlns:xlink="http://www.w3.org/1999/xlink" x="0px" y="0px"
	 viewBox="0 0 1000 350.1" style="enable-background:new 0 0 1000 350.1;" xml:space="preserve">
<style type="text/css">
	.st0{fill:none;}
	.st1{fill:#FFFFFF;}
</style>
<g>
	<g>
		<path class="st0" d="M609.5,122.7c-1.1,0-2,0.9-2.8,2.8l-5.1,12.3c4.9-0.9,9.8-1.7,14.8-2.6c-1.4-3.4-2.7-6.6-4-9.7
			C611.5,123.6,610.6,122.7,609.5,122.7z"/>
		<path class="st0" d="M900.4,147.9c1.3,1.7,2.6,2.4,3.9,2.2c1.4-0.2,2-1.4,2-3.5v-24.5c-6.9,1.8-13.7,3.5-20.5,5.2L900.4,147.9z"/>
		<path class="st0" d="M95.3,115.7c-1.5-0.6-3.1-1.3-4.6-1.9C91.9,114.9,93.5,115.6,95.3,115.7z"/>
		<path class="st0" d="M344.1,197.4c7,3.4,14.6,5.1,22.6,5.1c11.6,0,22-2.8,31.4-8.4c6.1-3.7,11.4-8,15.9-13.1
			c-34.3-1.6-66.6-4.6-96.9-8.6c2.4,4.3,5.3,8.2,8.6,11.7C330.9,189.6,337,194.1,344.1,197.4z"/>
		<path class="st1" d="M230.6,33.7c0-2.1-0.7-3.9-2.2-5.4c-1.5-1.5-3.3-2.2-5.4-2.2h-47.3c-2.3,0-4.2,0.7-5.5,2.2
			c-1.4,1.5-2.1,3.2-2.1,5.3v74.5c0,2.1-0.7,3.9-2.2,5.3c-1.5,1.5-3.3,2.2-5.3,2.2h-50.8c34.5,11.6,74.7,22.1,120.8,29.6V33.7z"/>
		<path class="st1" d="M90.7,113.8c-25-10.3-46.5-20.9-64.8-30.8v166.5c0,2.1,0.7,3.9,2.1,5.4c1.4,1.5,3.2,2.2,5.6,2.2h47.2
			c2.1,0,3.9-0.7,5.4-2.2c1.5-1.5,2.2-3.3,2.2-5.4V182c0-2.1,0.7-3.9,2-5.4c1.4-1.5,3.2-2.2,5.5-2.2h64.7c2.1,0,3.9,0.7,5.3,2.2
			c1.5,1.5,2.2,3.3,2.2,5.4v67.5c0,2.1,0.7,3.9,2.1,5.4c1.4,1.5,3.2,2.2,5.5,2.2h47.3c2.1,0,3.9-0.7,5.4-2.2
			c1.5-1.5,2.2-3.3,2.2-5.4v-92.2c-52.9-11.7-97.8-26.4-135.3-41.6C93.5,115.6,91.9,114.9,90.7,113.8z"/>
		<path class="st1" d="M88.4,33.7c0-2.1-0.7-3.9-2.2-5.3c-1.5-1.5-3.3-2.2-5.4-2.2H33.5c-2.3,0-4.2,0.7-5.6,2.2
			c-1.4,1.5-2.1,3.3-2.1,5.4v47c17.7,9,38.5,18.4,62.5,27.4V33.7z"/>
		<path class="st1" d="M398,194.1c-9.4,5.6-19.8,8.4-31.4,8.4c-8,0-15.5-1.7-22.6-5.1c-7-3.4-13.2-7.8-18.5-13.3
			c-3.4-3.5-6.2-7.4-8.6-11.7c-24.8-3.3-48.2-7.2-70.3-11.7c1.5,9.5,4.2,18.7,8,27.6c6.3,14.5,15,27.1,26,37.9
			c11,10.7,23.9,19.2,38.6,25.6c14.7,6.3,30.5,9.5,47.3,9.5c13.5,0,25.8-1.6,36.9-4.7c11.1-3.1,21.3-7.5,30.4-13.2
			c9.1-5.7,17.4-12.5,24.8-20.6c7.4-8.1,14.1-17,20.2-26.9c1.1-1.9,1.3-3.7,0.6-5.5c-0.6-1.8-1.9-3.1-3.8-3.9l-10.1-4
			c-17.7-0.1-35-0.6-51.7-1.4C409.4,186.1,404.1,190.5,398,194.1z"/>
		<path class="st1" d="M308.9,142.1c0-7.8,1.5-15.4,4.4-22.8c2.9-7.4,7-13.9,12.3-19.4c5.3-5.6,11.4-10.1,18.5-13.4
			c7-3.4,14.6-5.1,22.6-5.1c12.2,0,22.6,2.6,31.2,7.7c8.6,5.2,16,12.6,22.1,22.2c1.1,1.7,2.6,2.9,4.7,3.8c2.1,0.8,4.2,0.8,6.3,0
			l44.8-17.7c1.9-0.8,3.2-2.2,3.8-4.1c0.6-1.9,0.4-3.7-0.6-5.4c-6.1-9.7-12.8-18.6-20-26.7c-7.3-8.1-15.4-15-24.5-20.7
			c-9-5.7-19.1-10.1-30.3-13.3c-11.1-3.2-23.7-4.7-37.5-4.7c-16.8,0-32.6,3.2-47.3,9.5c-14.7,6.3-27.6,14.8-38.6,25.6
			c-11,10.7-19.7,23.3-26,37.9s-9.5,30-9.5,46.4c0,1.9,0.1,3.8,0.1,5.7c20.5,3,42.1,5.4,64.9,7.1
			C309.3,150.6,308.9,146.4,308.9,142.1z"/>
		<path class="st1" d="M485.5,247c-0.8,1.7-1.2,3.2-0.9,4.4c0.2,1.3,0.7,2.3,1.4,3.2c0.7,0.8,1.7,1.5,2.8,1.9
			c1.2,0.4,2.3,0.6,3.3,0.6h54.3c2.1,0,4.1-0.7,6.2-2c2-1.4,3.4-3,4.3-4.9l8.8-18.9c0.8-1.9,2.3-3.5,4.3-4.9c2-1.4,4.2-2,6.5-2h66.6
			c2.1,0,4.2,0.7,6.2,2c2,1.4,3.5,3,4.6,4.9l8.5,18.9c1,1.9,2.6,3.5,4.6,4.9c2,1.4,4.1,2,6.5,2h53.9c3.4,0,5.6-1,6.8-3.2
			c1.2-2.1,1.3-4.1,0.5-6L698.8,165c-66.6,9.9-128.3,15.2-185.4,16.9L485.5,247z"/>
		<path class="st1" d="M606.7,125.5c0.8-1.9,1.8-2.8,2.8-2.8c1.1,0,2,0.9,2.8,2.8c1.3,3.1,2.6,6.3,4,9.7c20.8-3.8,42.1-8.2,64-13.2
			l-38.1-88.6c-0.8-1.9-2.3-3.5-4.3-4.9c-2-1.4-4.1-2-6.2-2h-44.2c-2.3,0-4.5,0.7-6.5,2c-2,1.4-3.4,3-4.3,4.9l-49.4,115.3
			c23.8-2.8,48.5-6.4,74-10.9L606.7,125.5z"/>
		<path class="st1" d="M818.3,32.1c-1.3-1.7-3.1-3.1-5.4-4.3c-2.3-1.2-4.5-1.7-6.6-1.7H759c-2.1,0-3.9,0.7-5.4,2.2
			c-1.5,1.5-2.2,3.3-2.2,5.4v70.5c31.4-8.6,63.8-18.3,97.2-29.3L818.3,32.1z"/>
		<path class="st1" d="M751.5,249.5c0,2.1,0.7,3.9,2.2,5.4c1.5,1.5,3.3,2.2,5.4,2.2h47.2c2.1,0,3.9-0.7,5.4-2.2
			c1.5-1.5,2.2-3.3,2.2-5.4V144.1c-21.2,4.5-42.1,8.6-62.5,12.3V249.5z"/>
		<path class="st1" d="M966,28.4c-1.5-1.5-3.3-2.2-5.4-2.2h-46.7c-2.1,0-3.9,0.7-5.4,2.2c-1.5,1.5-2.2,3.3-2.2,5.4v21.2
			c20.2-7.3,40.7-15,61.5-23.3C967.5,30.4,966.9,29.3,966,28.4z"/>
		<path class="st1" d="M906.3,146.6c0,2.1-0.7,3.3-2,3.5c-1.4,0.2-2.7-0.5-3.9-2.2l-14.5-20.5c-20.7,5.2-41.1,10-61.1,14.3l77.4,109
			c1.3,1.7,3,3.2,5.4,4.4c2.3,1.3,4.5,1.9,6.6,1.9h46.6c2.1,0,3.9-0.7,5.4-2.2c1.5-1.5,2.2-3.3,2.2-5.4V105.1
			c-21,6.1-41.6,11.8-61.8,17V146.6z"/>
	</g>
	<g>
		<path class="st1" d="M38,317.5c0.4,0.3,1,0.8,1.6,1.4c0.7,0.6,1.4,1.2,2.2,1.7c1.3,0.8,2.5,1.5,3.7,2c1.2,0.5,2.5,0.7,3.9,0.7
			c1.3,0,2.3-0.1,3.2-0.4c0.9-0.3,1.5-0.7,2-1.1c0.5-0.5,0.8-1,1.1-1.6c0.2-0.6,0.3-1.3,0.3-2c0-0.8-0.3-1.4-0.9-2.1
			c-0.6-0.6-1.3-1.1-2.1-1.6c-0.8-0.5-1.7-0.9-2.6-1.2c-0.9-0.3-1.7-0.6-2.4-0.8c-3-1-5.6-2.2-7.8-3.3c-2.2-1.2-4.1-2.5-5.6-4
			s-2.6-3.1-3.3-4.8c-0.7-1.8-1.1-3.7-1.1-5.9c0-2.3,0.5-4.4,1.4-6.3c0.9-1.9,2.2-3.5,4-4.8c1.7-1.3,3.8-2.4,6.2-3.1
			s5.1-1.1,8.1-1.1c2.2,0,4.4,0.3,6.5,0.8c2.1,0.5,4.1,1.3,6.1,2.4c0.8,0.5,1.6,1,2.4,1.5c0.8,0.5,1.4,1,2,1.5c0.6,0.5,1,1,1.4,1.4
			s0.5,0.8,0.5,1.1c0,0.3-0.1,0.6-0.2,0.9c-0.2,0.3-0.4,0.6-0.7,0.9l-5.7,6c-0.4,0.4-0.8,0.6-1.3,0.6c-0.3,0-0.7-0.1-0.9-0.3
			c-0.3-0.2-0.6-0.4-0.9-0.7l-0.3-0.3c-0.5-0.4-1-0.9-1.6-1.3c-0.6-0.4-1.3-0.8-1.9-1.2c-0.7-0.4-1.4-0.7-2.2-0.9
			c-0.8-0.2-1.5-0.4-2.3-0.4c-0.8,0-1.6,0.1-2.3,0.2c-0.7,0.1-1.3,0.4-1.9,0.6c-0.5,0.3-1,0.7-1.3,1.2c-0.3,0.5-0.5,1.1-0.5,1.8
			c0,0.7,0.2,1.3,0.5,1.8c0.3,0.5,0.9,1,1.6,1.4c0.7,0.4,1.5,0.8,2.6,1.2c1,0.4,2.2,0.8,3.6,1.2c2.6,0.9,5,1.8,7.2,2.7
			s4.1,2.1,5.7,3.4c1.6,1.3,2.9,2.8,3.8,4.6c0.9,1.8,1.4,4,1.4,6.6c0,2.7-0.6,5.2-1.7,7.4c-1.1,2.2-2.6,4.1-4.6,5.6
			s-4.2,2.8-6.8,3.6c-2.6,0.9-5.4,1.3-8.4,1.3c-2.8,0-5.6-0.5-8.4-1.5c-2.7-1-5.3-2.4-7.7-4.1c-1-0.7-1.8-1.4-2.5-2.1
			c-0.7-0.7-1.2-1.2-1.6-1.7l-0.1-0.1c0,0,0-0.1-0.1-0.1c0,0,0,0-0.1-0.1c0,0,0-0.1-0.1-0.1c0,0,0,0-0.1-0.1
			c-0.6-0.6-0.9-1.1-0.9-1.5c0-0.4,0.3-0.9,0.9-1.4l6.4-6.1c0.5-0.4,0.9-0.6,1.3-0.6c0.2,0,0.5,0.1,0.7,0.2
			C37.4,317,37.7,317.2,38,317.5z"/>
		<path class="st1" d="M152.6,307.9c0-2.6,0.3-5.1,1-7.5c0.7-2.4,1.6-4.7,2.9-6.8c1.2-2.1,2.7-4,4.4-5.8c1.7-1.7,3.6-3.2,5.7-4.4
			c2.1-1.2,4.4-2.2,6.8-2.9s4.9-1,7.5-1c2.6,0,5.1,0.3,7.5,1s4.7,1.6,6.8,2.9s4,2.7,5.7,4.4c1.7,1.7,3.2,3.6,4.4,5.8
			c1.2,2.1,2.2,4.4,2.9,6.8c0.7,2.4,1,4.9,1,7.5s-0.3,5.1-1,7.5c-0.7,2.4-1.6,4.7-2.9,6.7c-1.2,2.1-2.7,4-4.4,5.7
			c-1.7,1.7-3.6,3.2-5.7,4.4c-2.1,1.2-4.4,2.2-6.8,2.9c-2.4,0.7-4.9,1-7.5,1c-2.6,0-5.1-0.3-7.5-1c-2.4-0.7-4.7-1.6-6.8-2.9
			c-2.1-1.2-4-2.7-5.7-4.4c-1.7-1.7-3.2-3.6-4.4-5.7c-1.2-2.1-2.2-4.3-2.9-6.7C153,313,152.6,310.5,152.6,307.9z M167,307.8
			c0,2,0.3,4,1,5.7c0.7,1.8,1.7,3.3,2.9,4.6c1.2,1.3,2.7,2.4,4.4,3.1c1.7,0.8,3.6,1.1,5.6,1.1s3.9-0.4,5.6-1.1
			c1.7-0.8,3.2-1.8,4.4-3.1c1.2-1.3,2.2-2.9,2.9-4.6c0.7-1.8,1-3.7,1-5.7c0-2-0.3-3.9-1-5.7c-0.7-1.8-1.7-3.4-2.9-4.7
			c-1.2-1.3-2.7-2.4-4.4-3.1c-1.7-0.8-3.6-1.1-5.6-1.1s-3.9,0.4-5.6,1.1c-1.7,0.8-3.2,1.8-4.4,3.1c-1.2,1.3-2.2,2.9-2.9,4.7
			C167.3,303.9,167,305.8,167,307.8z"/>
		<path class="st1" d="M308,313.4c0,1.8,0.3,3.4,0.8,4.7c0.5,1.3,1.2,2.3,2,3.1c0.8,0.8,1.8,1.4,2.9,1.8c1.1,0.4,2.2,0.6,3.4,0.6
			c1.2,0,2.4-0.2,3.5-0.6c1.1-0.4,2.1-1.1,2.9-1.9c0.8-0.9,1.5-1.9,2-3.2s0.7-2.7,0.7-4.3v-31.4c0-0.4,0.2-0.8,0.5-1.1
			c0.3-0.3,0.7-0.5,1.2-0.5h10.8c0.6,0,1,0.2,1.3,0.5c0.3,0.3,0.5,0.7,0.5,1.1v31.2c0,4.3-0.6,7.9-1.9,10.9c-1.3,2.9-3,5.3-5.1,7.1
			c-2.1,1.8-4.6,3.1-7.5,3.9c-2.8,0.8-5.8,1.2-8.9,1.2s-6.1-0.4-8.9-1.2c-2.8-0.8-5.3-2.1-7.5-3.9c-2.1-1.8-3.9-4.2-5.1-7.1
			c-1.3-2.9-1.9-6.5-1.9-10.8v-31.2c0-0.4,0.1-0.8,0.4-1.1c0.3-0.3,0.6-0.5,1.1-0.5h11.1c0.4,0,0.8,0.2,1.2,0.5s0.6,0.7,0.6,1.2
			V313.4z"/>
		<path class="st1" d="M426.8,282c0-0.5,0.1-0.9,0.4-1.2c0.3-0.3,0.7-0.5,1.2-0.5h23.9c2.5,0,4.9,0.5,7.1,1.4c2.2,1,4.2,2.2,5.8,3.9
			c1.7,1.6,3,3.5,3.9,5.7s1.4,4.5,1.4,7c0,1.7-0.2,3.3-0.7,4.8c-0.5,1.5-1.1,2.9-1.9,4.3s-1.8,2.5-2.9,3.6c-1.1,1.1-2.4,2-3.7,2.8
			l9.5,17.9c0.2,0.3,0.4,0.8,0.7,1.2c0.3,0.5,0.4,0.9,0.4,1.2c0,0.4-0.1,0.7-0.4,0.9c-0.3,0.2-0.6,0.3-1.1,0.3h-12.7
			c-0.4,0-0.8-0.1-1.1-0.4c-0.3-0.2-0.5-0.6-0.6-1l-9-16.9h-6v16.7c0,1.1-0.6,1.6-1.7,1.6h-11c-0.5,0-0.9-0.1-1.2-0.4
			s-0.4-0.7-0.4-1.2V282z M455.8,298.5c0-0.7-0.1-1.5-0.4-2.2c-0.3-0.7-0.7-1.4-1.1-2c-0.5-0.6-1.1-1.1-1.8-1.6s-1.5-0.7-2.3-0.8
			c-0.7,0-1.3-0.1-1.9-0.1c-0.6,0-1.3-0.1-2-0.1h-5.1v13.6h6.8c0.4,0,0.8,0,1.2,0s0.7-0.1,1.1-0.1c0.9-0.1,1.6-0.4,2.3-0.8
			c0.7-0.4,1.3-0.9,1.7-1.5s0.8-1.3,1.1-2C455.7,300,455.8,299.2,455.8,298.5z"/>
		<path class="st1" d="M596.3,284.3c0.4,0.2,0.7,0.6,0.9,1s0.2,0.9-0.1,1.4l-6.3,8.9c-0.3,0.4-0.6,0.7-0.9,0.7
			c-0.3,0.1-0.7,0-1.1-0.3c-1.2-0.9-2.5-1.6-4-2.1c-1.5-0.5-3-0.7-4.6-0.7c-2,0-3.9,0.4-5.6,1.1c-1.7,0.8-3.2,1.8-4.4,3.1
			c-1.2,1.3-2.2,2.9-2.9,4.7c-0.7,1.8-1,3.7-1,5.7s0.3,3.9,1,5.7c0.7,1.8,1.7,3.3,2.9,4.6c1.2,1.3,2.7,2.4,4.4,3.1s3.6,1.1,5.6,1.1
			c1.6,0,3.2-0.3,4.7-0.8c1.5-0.5,2.8-1.2,4-2.1c0.4-0.3,0.8-0.4,1.1-0.3c0.3,0,0.6,0.3,0.9,0.7l6.3,9.1c0.3,0.5,0.3,1,0.1,1.4
			c-0.2,0.4-0.5,0.7-0.9,0.9c-2.3,1.6-4.8,2.8-7.5,3.6c-2.7,0.9-5.5,1.3-8.5,1.3c-2.6,0-5.1-0.3-7.5-1c-2.4-0.7-4.7-1.6-6.8-2.9
			c-2.1-1.2-4-2.7-5.7-4.4c-1.7-1.7-3.2-3.6-4.4-5.7c-1.2-2.1-2.2-4.3-2.9-6.7c-0.7-2.4-1-4.9-1-7.5s0.3-5.1,1-7.5
			c0.7-2.4,1.6-4.7,2.9-6.8c1.2-2.1,2.7-4,4.4-5.8c1.7-1.7,3.6-3.2,5.7-4.4s4.4-2.2,6.8-2.9c2.4-0.7,4.9-1,7.5-1
			c3,0,5.8,0.4,8.4,1.2C591.5,281.6,594,282.8,596.3,284.3z"/>
		<path class="st1" d="M682.2,281.9c0-0.4,0.1-0.8,0.4-1.1c0.3-0.3,0.7-0.5,1.2-0.5h10.9c0.4,0,0.8,0.1,1.2,0.4
			c0.4,0.3,0.6,0.7,0.6,1.2v51.7c0,1.1-0.6,1.6-1.8,1.6h-10.9c-1.1,0-1.6-0.5-1.6-1.6V281.9z"/>
		<path class="st1" d="M784.1,281.9c0-0.4,0.1-0.8,0.4-1.1c0.3-0.3,0.7-0.5,1.2-0.5h12.1c0.3,0,0.7,0.1,1.1,0.3s0.7,0.5,1,0.9
			c3.1,5.1,6.2,10,9.3,15c3.1,4.9,6.2,9.9,9.4,15v-29.7c0.1-0.4,0.3-0.8,0.6-1c0.3-0.2,0.6-0.4,1-0.4h10.6c0.5,0,1,0.1,1.3,0.4
			c0.3,0.3,0.5,0.7,0.5,1.2v51.9c0,0.5-0.1,0.9-0.4,1.1c-0.3,0.2-0.7,0.4-1.2,0.4h-11.8c-0.3,0-0.6-0.1-0.9-0.3
			c-0.2-0.2-0.5-0.5-0.8-0.9c-3.3-5.4-6.5-10.8-9.7-16.1c-3.2-5.3-6.5-10.7-9.8-16.1v31.8c0,0.5-0.1,1-0.4,1.2s-0.7,0.4-1.3,0.4
			h-10.5c-0.6,0-1-0.2-1.2-0.5c-0.3-0.3-0.4-0.7-0.4-1.1V281.9z"/>
		<path class="st1" d="M954.9,295.8c-1.3-0.9-2.6-1.6-4-2.1c-1.4-0.5-3-0.7-4.6-0.7c-2,0-3.9,0.4-5.6,1.2s-3.2,1.8-4.4,3.2
			s-2.2,2.9-2.9,4.7c-0.7,1.8-1,3.7-1,5.7c0,2,0.3,3.9,1,5.7s1.6,3.3,2.9,4.6s2.7,2.4,4.4,3.1s3.6,1.1,5.6,1.1
			c0.9,0,1.7-0.1,2.6-0.2c0.9-0.1,1.8-0.3,2.7-0.5V312c0-0.5,0.1-0.9,0.4-1.2c0.3-0.3,0.7-0.5,1.2-0.5h10.1c0.4,0,0.8,0.1,1.2,0.4
			c0.4,0.3,0.6,0.7,0.6,1.2v17.9c0,0.7-0.4,1.2-1.1,1.6c-1.2,0.8-2.4,1.5-3.9,2c-1.4,0.6-2.9,1-4.4,1.4c-1.5,0.4-3.1,0.6-4.6,0.8
			c-1.6,0.2-3.1,0.3-4.6,0.3c-2.6,0-5.1-0.3-7.5-1c-2.4-0.7-4.7-1.6-6.8-2.9c-2.1-1.2-4-2.7-5.7-4.4c-1.7-1.7-3.2-3.6-4.4-5.7
			c-1.2-2.1-2.2-4.3-2.9-6.7c-0.7-2.4-1-4.9-1-7.5s0.3-5.1,1-7.5c0.7-2.4,1.6-4.7,2.9-6.8s2.7-4,4.4-5.8c1.7-1.7,3.6-3.2,5.7-4.4
			c2.1-1.2,4.4-2.2,6.8-2.9s4.9-1,7.5-1c3,0,5.8,0.4,8.4,1.2c2.6,0.8,5.1,2,7.4,3.6c0.4,0.2,0.7,0.6,1,1c0.2,0.4,0.2,0.9-0.1,1.4
			l-6,8.7c-0.3,0.4-0.6,0.7-1,0.8C955.8,296.3,955.4,296.2,954.9,295.8z"/>
	</g>
</g>
</svg>
