<?xml version="1.0" encoding="utf-8"?>
<!-- Generator: Adobe Illustrator 23.0.1, SVG Export Plug-In . SVG Version: 6.00 Build 0)  -->
<svg version="1.1" id="Layer_1" xmlns="http://www.w3.org/2000/svg" xmlns:xlink="http://www.w3.org/1999/xlink" x="0px" y="0px"
	 viewBox="0 0 1000 350.1" style="enable-background:new 0 0 1000 350.1;" xml:space="preserve">
<style type="text/css">
	.st0{fill:none;}
</style>
<g>
	<g>
		<path class="st0" d="M611.8,114.4c-1.1,0-2,1-2.9,2.9l-5.2,12.6c5-0.9,10-1.8,15.1-2.7c-1.4-3.4-2.8-6.7-4.1-9.9
			C613.8,115.4,612.9,114.4,611.8,114.4z"/>
		<path class="st0" d="M908.3,140.1c1.3,1.7,2.6,2.5,4,2.2c1.4-0.2,2.1-1.4,2.1-3.5v-25c-7,1.8-14,3.6-20.9,5.3L908.3,140.1z"/>
		<path class="st0" d="M87.5,107.3c-1.6-0.6-3.1-1.3-4.7-1.9C84,106.5,85.6,107.2,87.5,107.3z"/>
		<path class="st0" d="M341.1,190.6c7.2,3.4,14.8,5.2,23,5.2c11.8,0,22.5-2.8,32-8.5c6.3-3.7,11.7-8.2,16.2-13.4
			c-35-1.6-67.9-4.7-98.8-8.7c2.5,4.3,5.4,8.3,8.8,11.9C327.7,182.7,333.9,187.2,341.1,190.6z"/>
		<path d="M225.5,23.7c0-2.1-0.8-4-2.3-5.5c-1.5-1.5-3.3-2.3-5.5-2.3h-48.2c-2.4,0-4.2,0.7-5.6,2.2c-1.4,1.5-2.1,3.3-2.1,5.4v76
			c0,2.1-0.7,4-2.2,5.5c-1.5,1.5-3.3,2.2-5.4,2.2h-51.8c35.1,11.8,76.1,22.5,123.2,30.2V23.7z"/>
		<path d="M82.8,105.4C57.3,94.8,35.4,84.1,16.7,73.9v169.8c0,2.1,0.7,4,2.1,5.5c1.4,1.5,3.3,2.3,5.7,2.3h48.2c2.2,0,4-0.7,5.5-2.3
			c1.5-1.5,2.3-3.3,2.3-5.5v-68.8c0-2.1,0.7-4,2.1-5.5c1.4-1.5,3.3-2.2,5.6-2.2h66c2.1,0,3.9,0.8,5.4,2.2c1.5,1.5,2.2,3.3,2.2,5.5
			v68.8c0,2.1,0.7,4,2.1,5.5c1.4,1.5,3.3,2.3,5.6,2.3h48.2c2.1,0,4-0.7,5.5-2.3c1.5-1.5,2.3-3.3,2.3-5.5v-94
			c-53.9-11.9-99.7-26.9-138-42.4C85.6,107.2,84,106.5,82.8,105.4z"/>
		<path d="M80.4,23.7c0-2.1-0.8-4-2.3-5.4c-1.5-1.5-3.3-2.2-5.5-2.2H24.5c-2.4,0-4.3,0.8-5.7,2.3c-1.4,1.5-2.1,3.3-2.1,5.5v47.9
			C34.8,80.9,56,90.4,80.4,99.6V23.7z"/>
		<path d="M396.1,187.3c-9.5,5.7-20.2,8.5-32,8.5c-8.2,0-15.8-1.7-23-5.2c-7.2-3.4-13.5-8-18.8-13.5c-3.4-3.6-6.3-7.6-8.8-11.9
			c-25.3-3.3-49.2-7.4-71.7-12c1.5,9.7,4.2,19.1,8.2,28.1c6.4,14.8,15.3,27.7,26.5,38.6c11.3,10.9,24.4,19.6,39.4,26.1
			c15,6.4,31.1,9.7,48.2,9.7c13.7,0,26.3-1.6,37.6-4.8c11.4-3.2,21.7-7.7,31-13.4c9.3-5.8,17.7-12.7,25.2-21
			c7.5-8.2,14.4-17.3,20.6-27.4c1.1-1.9,1.3-3.8,0.6-5.6c-0.6-1.8-1.9-3.2-3.9-4l-10.3-4.1c-18.1-0.1-35.6-0.6-52.7-1.4
			C407.8,179.1,402.4,183.5,396.1,187.3z"/>
		<path d="M305.3,134.2c0-8,1.5-15.7,4.5-23.2c3-7.5,7.2-14.1,12.5-19.8c5.4-5.7,11.6-10.3,18.8-13.7c7.2-3.4,14.8-5.2,23-5.2
			c12.4,0,23,2.6,31.8,7.9c8.8,5.3,16.3,12.8,22.5,22.7c1.1,1.7,2.7,3,4.8,3.9c2.1,0.9,4.3,0.9,6.4,0l45.7-18
			c1.9-0.9,3.2-2.3,3.9-4.2c0.6-1.9,0.4-3.7-0.6-5.5c-6.2-9.9-13-18.9-20.4-27.2c-7.4-8.3-15.7-15.3-24.9-21.1
			c-9.2-5.8-19.5-10.3-30.9-13.5c-11.4-3.2-24.1-4.8-38.3-4.8c-17.2,0-33.2,3.2-48.2,9.6c-15,6.4-28.1,15.1-39.4,26.1
			c-11.3,10.9-20.1,23.8-26.5,38.6c-6.4,14.8-9.7,30.6-9.7,47.3c0,1.9,0.1,3.9,0.1,5.8c20.9,3.1,43,5.5,66.2,7.2
			C305.7,142.9,305.3,138.6,305.3,134.2z"/>
		<path d="M485.4,241.1c-0.9,1.7-1.2,3.2-1,4.5c0.2,1.3,0.7,2.4,1.4,3.2c0.8,0.9,1.7,1.5,2.9,1.9c1.2,0.4,2.3,0.6,3.4,0.6h55.3
			c2.1,0,4.2-0.7,6.3-2.1c2-1.4,3.5-3.1,4.3-5l9-19.3c0.9-1.9,2.3-3.6,4.3-5c2-1.4,4.2-2.1,6.6-2.1h67.9c2.1,0,4.2,0.7,6.3,2.1
			c2,1.4,3.6,3.1,4.7,5l8.7,19.3c1.1,1.9,2.6,3.6,4.7,5c2,1.4,4.2,2.1,6.6,2.1h55c3.4,0,5.7-1.1,6.9-3.2c1.2-2.1,1.3-4.2,0.5-6.1
			l-36.3-84.6c-67.9,10.1-130.9,15.5-189,17.2L485.4,241.1z"/>
		<path d="M608.9,117.3c0.9-1.9,1.8-2.9,2.9-2.9c1.1,0,2,1,2.9,2.9c1.3,3.2,2.7,6.5,4.1,9.9c21.2-3.9,43-8.4,65.3-13.4l-38.8-90.4
			c-0.9-1.9-2.3-3.6-4.3-5c-2-1.4-4.1-2.1-6.3-2.1h-45c-2.4,0-4.6,0.7-6.6,2.1c-2,1.4-3.5,3.1-4.3,5L528.3,141
			c24.3-2.9,49.5-6.6,75.4-11.1L608.9,117.3z"/>
		<path d="M824.7,22.1c-1.3-1.7-3.1-3.2-5.5-4.3c-2.4-1.2-4.6-1.8-6.8-1.8h-48.2c-2.1,0-4,0.8-5.5,2.3c-1.5,1.5-2.2,3.3-2.2,5.5
			v71.9c32-8.7,65-18.6,99.1-29.9L824.7,22.1z"/>
		<path d="M756.5,243.7c0,2.1,0.8,4,2.3,5.5c1.5,1.5,3.3,2.3,5.5,2.3h48.2c2.2,0,4-0.7,5.5-2.3c1.5-1.5,2.3-3.3,2.3-5.5V136.2
			c-21.7,4.6-42.9,8.8-63.7,12.5V243.7z"/>
		<path d="M975.3,18.2c-1.5-1.5-3.3-2.3-5.5-2.3h-47.6c-2.1,0-4,0.8-5.5,2.3c-1.5,1.5-2.3,3.3-2.3,5.5v21.6
			c20.6-7.4,41.5-15.3,62.7-23.7C976.8,20.3,976.2,19.2,975.3,18.2z"/>
		<path d="M914.5,138.9c0,2.1-0.7,3.3-2.1,3.5c-1.4,0.2-2.7-0.5-4-2.2l-14.8-20.9c-21.2,5.3-41.9,10.2-62.3,14.6L910.1,245
			c1.3,1.7,3.1,3.2,5.5,4.5c2.3,1.3,4.6,1.9,6.7,1.9h47.5c2.1,0,4-0.7,5.5-2.3c1.5-1.5,2.2-3.3,2.2-5.5V96.5
			c-21.4,6.2-42.4,12-63,17.4V138.9z"/>
	</g>
	<g>
		<path d="M29.1,313.1c0.4,0.4,1,0.8,1.6,1.4c0.7,0.6,1.4,1.2,2.3,1.8c1.3,0.9,2.6,1.5,3.8,2c1.3,0.5,2.6,0.7,4,0.7
			c1.3,0,2.4-0.1,3.2-0.4s1.6-0.7,2.1-1.2c0.5-0.5,0.9-1,1.1-1.7c0.2-0.6,0.3-1.3,0.3-2c0-0.8-0.3-1.5-0.9-2.1
			c-0.6-0.6-1.3-1.2-2.2-1.6c-0.9-0.5-1.7-0.9-2.7-1.2c-0.9-0.3-1.7-0.6-2.4-0.8c-3-1.1-5.7-2.2-7.9-3.4s-4.2-2.6-5.7-4.1
			c-1.5-1.5-2.6-3.1-3.4-4.9s-1.1-3.8-1.1-6c0-2.3,0.5-4.5,1.4-6.4s2.3-3.5,4-4.9c1.7-1.4,3.9-2.4,6.3-3.1c2.5-0.7,5.2-1.1,8.3-1.1
			c2.3,0,4.5,0.3,6.6,0.8c2.1,0.5,4.2,1.3,6.2,2.5c0.9,0.5,1.7,1,2.4,1.6c0.8,0.5,1.4,1.1,2,1.6c0.6,0.5,1,1,1.4,1.4
			c0.3,0.5,0.5,0.8,0.5,1.2c0,0.3-0.1,0.6-0.2,0.9c-0.2,0.3-0.4,0.6-0.7,0.9l-5.8,6.2c-0.4,0.4-0.9,0.6-1.3,0.6
			c-0.4,0-0.7-0.1-1-0.3c-0.3-0.2-0.6-0.5-1-0.8l-0.3-0.3c-0.5-0.4-1.1-0.9-1.7-1.3c-0.6-0.5-1.3-0.9-2-1.2
			c-0.7-0.4-1.4-0.7-2.2-0.9c-0.8-0.2-1.6-0.4-2.4-0.4c-0.8,0-1.6,0.1-2.3,0.2c-0.7,0.1-1.4,0.4-1.9,0.7c-0.6,0.3-1,0.7-1.3,1.2
			c-0.3,0.5-0.5,1.1-0.5,1.8s0.2,1.3,0.5,1.8s0.9,1,1.6,1.4c0.7,0.4,1.6,0.9,2.6,1.2c1,0.4,2.3,0.8,3.6,1.3c2.7,0.9,5.1,1.8,7.4,2.8
			c2.3,1,4.2,2.1,5.8,3.4c1.6,1.3,2.9,2.9,3.8,4.7c0.9,1.8,1.4,4.1,1.4,6.7c0,2.8-0.6,5.3-1.7,7.5c-1.1,2.3-2.7,4.2-4.7,5.8
			c-2,1.6-4.3,2.8-7,3.7c-2.7,0.9-5.5,1.3-8.6,1.3c-2.9,0-5.7-0.5-8.5-1.6c-2.8-1-5.4-2.4-7.8-4.2c-1-0.7-1.9-1.5-2.5-2.2
			c-0.7-0.7-1.2-1.3-1.6-1.7l-0.1-0.1c0,0-0.1-0.1-0.1-0.1c0,0-0.1,0-0.1-0.1c0,0-0.1-0.1-0.1-0.1c0,0-0.1,0-0.1-0.1
			c-0.6-0.6-0.9-1.1-0.9-1.5c0-0.4,0.3-0.9,0.9-1.4l6.5-6.2c0.5-0.4,1-0.6,1.3-0.6c0.2,0,0.5,0.1,0.7,0.2S28.7,312.8,29.1,313.1z"/>
		<path d="M145.9,303.2c0-2.7,0.3-5.2,1-7.7s1.6-4.8,2.9-6.9c1.3-2.2,2.8-4.1,4.5-5.9c1.8-1.8,3.7-3.3,5.8-4.5
			c2.1-1.2,4.4-2.2,6.9-2.9c2.5-0.7,5-1,7.7-1c2.6,0,5.2,0.3,7.7,1c2.5,0.7,4.8,1.7,6.9,2.9c2.1,1.2,4.1,2.8,5.9,4.5
			c1.8,1.8,3.3,3.7,4.5,5.9c1.2,2.2,2.2,4.5,2.9,6.9c0.7,2.5,1,5,1,7.7c0,2.7-0.3,5.2-1,7.7c-0.7,2.5-1.7,4.7-2.9,6.9
			c-1.2,2.1-2.8,4.1-4.5,5.8c-1.8,1.7-3.7,3.3-5.9,4.5c-2.1,1.3-4.4,2.2-6.9,2.9c-2.5,0.7-5,1-7.7,1c-2.7,0-5.2-0.3-7.7-1
			c-2.5-0.7-4.8-1.6-6.9-2.9c-2.1-1.3-4.1-2.8-5.8-4.5c-1.8-1.7-3.3-3.7-4.5-5.8c-1.3-2.1-2.2-4.4-2.9-6.9S145.9,305.9,145.9,303.2z
			 M160.5,303.2c0,2.1,0.4,4,1.1,5.9c0.7,1.8,1.7,3.4,3,4.7c1.3,1.3,2.8,2.4,4.5,3.2c1.7,0.8,3.6,1.2,5.7,1.2c2.1,0,4-0.4,5.7-1.2
			c1.7-0.8,3.3-1.8,4.5-3.2c1.3-1.3,2.3-2.9,3-4.7c0.7-1.8,1.1-3.8,1.1-5.9c0-2.1-0.4-4-1.1-5.8c-0.7-1.8-1.7-3.4-3-4.8
			c-1.3-1.4-2.8-2.4-4.5-3.2c-1.7-0.8-3.7-1.2-5.7-1.2c-2.1,0-4,0.4-5.7,1.2c-1.7,0.8-3.2,1.8-4.5,3.2c-1.3,1.4-2.3,3-3,4.8
			C160.9,299.2,160.5,301.1,160.5,303.2z"/>
		<path d="M304.3,308.8c0,1.9,0.3,3.4,0.8,4.7c0.5,1.3,1.2,2.4,2,3.2s1.8,1.4,3,1.8c1.1,0.4,2.3,0.6,3.5,0.6c1.3,0,2.5-0.2,3.6-0.7
			c1.1-0.4,2.1-1.1,3-2s1.5-1.9,2-3.2c0.5-1.3,0.7-2.8,0.7-4.4v-32c0-0.5,0.2-0.8,0.5-1.2c0.3-0.3,0.7-0.5,1.3-0.5h11
			c0.6,0,1,0.2,1.4,0.5c0.3,0.3,0.5,0.7,0.5,1.2v31.8c0,4.4-0.6,8.1-1.9,11.1c-1.3,3-3,5.4-5.2,7.2c-2.2,1.8-4.7,3.1-7.6,3.9
			c-2.9,0.8-5.9,1.2-9.1,1.2s-6.2-0.4-9.1-1.2c-2.9-0.8-5.4-2.2-7.6-4s-3.9-4.3-5.2-7.2c-1.3-3-1.9-6.6-1.9-11v-31.8
			c0-0.4,0.1-0.8,0.4-1.2c0.3-0.3,0.6-0.5,1.1-0.5h11.3c0.4,0,0.8,0.2,1.2,0.5c0.4,0.3,0.6,0.7,0.6,1.2V308.8z"/>
		<path d="M425.5,276.9c0-0.5,0.1-0.9,0.4-1.3c0.3-0.3,0.7-0.5,1.2-0.5h24.4c2.6,0,5,0.5,7.3,1.5c2.3,1,4.2,2.3,5.9,3.9
			c1.7,1.7,3,3.6,4,5.8c1,2.2,1.5,4.6,1.5,7.1c0,1.7-0.2,3.3-0.7,4.9c-0.5,1.5-1.1,3-1.9,4.3s-1.8,2.6-3,3.7c-1.1,1.1-2.4,2-3.8,2.8
			l9.7,18.3c0.2,0.4,0.4,0.8,0.7,1.2c0.3,0.5,0.4,0.9,0.4,1.2c0,0.4-0.1,0.7-0.4,0.9c-0.3,0.2-0.6,0.3-1.1,0.3h-12.9
			c-0.4,0-0.8-0.1-1.2-0.4c-0.3-0.3-0.6-0.6-0.7-1l-9.2-17.3h-6.1v17c0,1.1-0.6,1.6-1.7,1.6h-11.2c-0.5,0-0.9-0.1-1.2-0.4
			c-0.3-0.3-0.5-0.7-0.5-1.2V276.9z M455.1,293.6c0-0.8-0.1-1.5-0.4-2.3c-0.3-0.8-0.7-1.4-1.2-2.1c-0.5-0.6-1.1-1.2-1.8-1.6
			c-0.7-0.4-1.5-0.7-2.3-0.8c-0.7,0-1.4-0.1-2-0.1c-0.6,0-1.3-0.1-2-0.1h-5.2v13.9h6.9c0.5,0,0.9,0,1.2,0c0.4,0,0.7-0.1,1.2-0.1
			c0.9-0.1,1.7-0.4,2.4-0.8s1.3-0.9,1.8-1.5c0.5-0.6,0.8-1.3,1.1-2.1C454.9,295.2,455.1,294.4,455.1,293.6z"/>
		<path d="M598.3,279.2c0.4,0.3,0.7,0.6,0.9,1c0.2,0.4,0.2,0.9-0.1,1.4l-6.4,9.1c-0.3,0.4-0.6,0.7-0.9,0.7c-0.3,0.1-0.7,0-1.2-0.3
			c-1.2-0.9-2.6-1.6-4.1-2.2c-1.5-0.5-3.1-0.8-4.7-0.8c-2.1,0-4,0.4-5.7,1.2c-1.7,0.8-3.2,1.8-4.5,3.2c-1.3,1.4-2.2,2.9-2.9,4.8
			c-0.7,1.8-1.1,3.8-1.1,5.8c0,2.1,0.4,4,1.1,5.8c0.7,1.8,1.7,3.4,2.9,4.7c1.3,1.3,2.8,2.4,4.5,3.2c1.7,0.8,3.6,1.2,5.7,1.2
			c1.7,0,3.2-0.3,4.8-0.8c1.5-0.5,2.9-1.2,4.1-2.2c0.5-0.3,0.8-0.4,1.1-0.3c0.3,0.1,0.6,0.3,0.9,0.7l6.5,9.3c0.3,0.6,0.3,1,0.1,1.4
			c-0.2,0.4-0.5,0.7-0.9,0.9c-2.4,1.6-4.9,2.8-7.6,3.7s-5.6,1.3-8.6,1.3c-2.7,0-5.2-0.3-7.7-1c-2.5-0.7-4.8-1.6-6.9-2.9
			c-2.1-1.3-4.1-2.8-5.8-4.5s-3.3-3.7-4.5-5.8c-1.3-2.1-2.2-4.4-2.9-6.9c-0.7-2.5-1-5-1-7.7c0-2.7,0.3-5.2,1-7.7
			c0.7-2.5,1.6-4.8,2.9-6.9c1.3-2.2,2.8-4.1,4.5-5.9s3.7-3.3,5.8-4.5c2.1-1.2,4.4-2.2,6.9-2.9c2.5-0.7,5-1,7.7-1
			c3,0,5.9,0.4,8.6,1.3C593.4,276.4,596,277.6,598.3,279.2z"/>
		<path d="M685.9,276.8c0-0.5,0.1-0.8,0.4-1.2c0.3-0.3,0.7-0.5,1.2-0.5h11.1c0.4,0,0.8,0.2,1.2,0.5s0.6,0.7,0.6,1.2v52.7
			c0,1.1-0.6,1.7-1.8,1.7h-11.1c-1.1,0-1.7-0.6-1.7-1.7V276.8z"/>
		<path d="M789.8,276.8c0-0.5,0.1-0.8,0.4-1.2c0.3-0.3,0.7-0.5,1.2-0.5h12.3c0.4,0,0.7,0.1,1.1,0.3c0.4,0.2,0.7,0.5,1,0.9
			c3.2,5.2,6.4,10.2,9.5,15.3c3.1,5,6.3,10.1,9.6,15.3v-30.2c0.1-0.5,0.3-0.8,0.6-1.1s0.7-0.4,1.1-0.4h10.8c0.5,0,1,0.1,1.3,0.4
			s0.5,0.7,0.5,1.2v52.9c0,0.5-0.2,0.9-0.5,1.1s-0.7,0.4-1.2,0.4h-12c-0.3,0-0.6-0.1-0.9-0.3c-0.3-0.2-0.5-0.5-0.8-0.9
			c-3.3-5.5-6.7-11-9.9-16.4s-6.6-10.9-10-16.4v32.4c0,0.6-0.1,1-0.4,1.2s-0.7,0.4-1.4,0.4h-10.7c-0.6,0-1-0.2-1.3-0.5
			c-0.3-0.3-0.4-0.7-0.4-1.2V276.8z"/>
		<path d="M963.9,291c-1.3-0.9-2.7-1.6-4.1-2.1c-1.5-0.5-3-0.8-4.7-0.8c-2.1,0-4,0.4-5.7,1.2s-3.2,1.9-4.5,3.2
			c-1.2,1.4-2.2,3-2.9,4.8c-0.7,1.8-1.1,3.8-1.1,5.8s0.4,4,1.1,5.8c0.7,1.8,1.7,3.4,2.9,4.7c1.2,1.3,2.7,2.4,4.5,3.2
			s3.6,1.2,5.7,1.2c0.9,0,1.8-0.1,2.6-0.2c0.9-0.1,1.8-0.3,2.8-0.5v-9.9c0-0.5,0.1-0.9,0.4-1.2c0.3-0.3,0.7-0.5,1.2-0.5h10.3
			c0.4,0,0.8,0.2,1.2,0.5s0.6,0.7,0.6,1.2v18.3c0,0.7-0.4,1.2-1.1,1.7c-1.2,0.8-2.5,1.5-3.9,2.1s-2.9,1.1-4.5,1.4
			c-1.6,0.4-3.1,0.7-4.7,0.8c-1.6,0.2-3.2,0.3-4.7,0.3c-2.7,0-5.2-0.3-7.7-1s-4.8-1.6-6.9-2.9c-2.1-1.3-4.1-2.8-5.8-4.5
			c-1.8-1.7-3.3-3.7-4.5-5.8s-2.2-4.4-2.9-6.9c-0.7-2.5-1-5-1-7.7c0-2.7,0.3-5.2,1-7.7c0.7-2.5,1.6-4.8,2.9-6.9
			c1.3-2.2,2.8-4.1,4.5-5.9c1.7-1.8,3.7-3.3,5.8-4.5c2.1-1.2,4.4-2.2,6.9-2.9s5-1,7.7-1c3,0,5.9,0.4,8.6,1.3
			c2.7,0.8,5.2,2.1,7.6,3.6c0.4,0.3,0.8,0.6,1,1c0.2,0.4,0.2,0.9-0.2,1.4l-6.1,8.8c-0.3,0.4-0.7,0.7-1,0.8
			C964.9,291.4,964.5,291.3,963.9,291z"/>
	</g>
</g>
</svg>
