<?xml version="1.0" encoding="utf-8"?>
<!-- Generator: Adobe Illustrator 23.0.1, SVG Export Plug-In . SVG Version: 6.00 Build 0)  -->
<svg version="1.1" id="Layer_1" xmlns="http://www.w3.org/2000/svg" xmlns:xlink="http://www.w3.org/1999/xlink" x="0px" y="0px"
	 viewBox="0 0 100 100" style="enable-background:new 0 0 100 100;" xml:space="preserve">
<style type="text/css">
	.st0{display:none;}
	.st1{display:inline;}
	.st2{fill:#ED294F;}
</style>
<g class="st0">
	<g class="st1">
		<path class="st2" d="M84.1,15.4C75,6.3,62.9,1.2,50,1.2s-25,5-34.2,14.2S1.6,36.7,1.6,49.6s5,25,14.2,34.2S37.1,97.9,50,97.9
			s25-5,34.2-14.2s14.2-21.3,14.2-34.2S93.3,24.5,84.1,15.4z M50,92.6c-23.7,0-43-19.3-43-43s19.3-43,43-43s43,19.3,43,43
			S73.7,92.6,50,92.6z"/>
		<path class="st2" d="M69.1,30.7L40.9,58.9L30.8,48.8c-1.8-1.8-4.6-1.8-6.4,0s-1.8,4.6,0,6.4l13.3,13.3c0.9,0.9,2,1.3,3.2,1.3
			s2.3-0.4,3.2-1.3l31.4-31.4c1.8-1.8,1.8-4.6,0-6.4C73.8,28.9,70.9,28.9,69.1,30.7z"/>
	</g>
</g>
<g class="st0">
	<g class="st1">
		<path class="st2" d="M84.1,15.2C75,6.1,62.8,1,49.9,1s-25.1,5-34.2,14.2S1.5,36.5,1.5,49.4s5,25.1,14.2,34.2S37,97.8,49.9,97.8
			s25.1-5,34.2-14.2s14.2-21.3,14.2-34.2S93.3,24.4,84.1,15.2z M49.9,92.5c-23.7,0-43-19.3-43-43s19.3-43,43-43s43,19.3,43,43
			S73.6,92.5,49.9,92.5z"/>
		<g>
			<g>
				<path class="st2" d="M63.5,48.6c-1.1-0.8-2.4-1.4-3.8-1.9c-1.4-0.5-2.9-0.9-4.3-1.2c-1.2-0.3-2.4-0.5-3.5-0.8v-8
					c0.9,0.2,1.6,0.4,2.4,0.8c1.3,0.7,2.1,2,2.2,4h9.7c-0.2-2.3-0.8-4.2-1.8-5.7c-1-1.5-2.2-2.7-3.7-3.6c-1.5-0.9-3.2-1.6-5.1-1.9
					c-1.2-0.3-2.5-0.4-3.8-0.5v-4.4H48v4.4c-1.4,0.1-2.8,0.2-4.2,0.5c-1.9,0.4-3.6,1-5.2,1.9c-1.5,0.9-2.8,2.1-3.7,3.7
					c-0.9,1.6-1.4,3.5-1.4,5.9c0,1.6,0.3,3,1,4.1c0.7,1.1,1.6,2.1,2.7,2.8c1.1,0.7,2.4,1.3,3.8,1.8c1.4,0.5,2.9,0.8,4.3,1.2
					c0.9,0.2,1.8,0.4,2.7,0.6v9.7c-0.2,0-0.5-0.1-0.7-0.1c-0.9-0.2-1.8-0.6-2.5-1.1c-0.7-0.5-1.3-1.2-1.8-1.9
					c-0.5-0.8-0.7-1.7-0.7-2.8h-9.7c0.1,2.4,0.7,4.5,1.7,6.2c1,1.7,2.3,3,4,4.1c1.6,1,3.4,1.8,5.5,2.2c1.4,0.3,2.8,0.4,4.2,0.5v4.4
					h3.8v-4.4c1.5-0.1,3.1-0.2,4.6-0.6c2-0.4,3.9-1.1,5.4-2.2c1.6-1,2.9-2.3,3.8-4c1-1.7,1.5-3.7,1.5-6.2c0-1.7-0.3-3.2-1-4.3
					S64.6,49.4,63.5,48.6z M47.4,43.5c-1.1-0.4-2-0.8-2.6-1.4c-0.7-0.6-1-1.3-1-2.2c0-0.8,0.2-1.4,0.6-1.8c0.4-0.5,0.8-0.8,1.4-1
					c0.5-0.2,1.2-0.4,1.8-0.5c0.2,0,0.3,0,0.4,0v7.2C47.8,43.7,47.6,43.6,47.4,43.5z M56.3,59.5c-0.4,0.6-1,1.1-1.6,1.4
					c-0.6,0.4-1.4,0.6-2.2,0.8c-0.2,0-0.4,0.1-0.7,0.1v-8.8c0.8,0.2,1.5,0.5,2,0.7c1,0.4,1.7,0.9,2.3,1.5c0.5,0.5,0.8,1.2,0.8,2
					C56.9,58.2,56.7,58.9,56.3,59.5z"/>
			</g>
		</g>
	</g>
</g>
<g>
	<path class="st2" d="M84.1,15.2C75,6.1,62.8,1.1,49.9,1.1s-25.1,5-34.2,14.2S1.6,36.5,1.6,49.4s5,25.1,14.2,34.2S37,97.8,49.9,97.8
		s25.1-5,34.2-14.2s14.2-21.3,14.2-34.2S93.3,24.4,84.1,15.2z M49.9,92.4c-23.7,0-43-19.3-43-43s19.3-43,43-43s43,19.3,43,43
		S73.6,92.4,49.9,92.4z"/>
	<g>
		<path class="st2" d="M67.5,50.4h-2.2V39.2c0-7.9-6.9-14.4-15.3-14.4s-15.3,6.5-15.3,14.4v11.2c0,0-1,0-2.2,0c-1.2,0-2.2,1.3-2.2,3
			V71c0,1.7,1.3,3,3,3h33.5c1.7,0,3-1.3,3-3V53.4C69.7,51.8,68.7,50.4,67.5,50.4z M49.9,63.9c-1.2,0-2.3-1-2.3-2.3s1-2.3,2.3-2.3
			s2.3,1,2.3,2.3S51.2,63.9,49.9,63.9z M60.2,50.4H39.6V39.2c0-5.2,4.6-9.4,10.3-9.4s10.3,4.2,10.3,9.4V50.4z"/>
	</g>
</g>
</svg>
